<svg width="40" height="40" viewBox="0 0 40 40" fill="none" xmlns="http://www.w3.org/2000/svg">
<g id="plus" clip-path="url(#clip0_188_60)">
<g id="Group">
<g id="Group_2">
<path id="Vector" d="M38.5677 18.9677H20.2323V0.632258C20.2323 0.283094 19.9492 0 19.6 0C19.2508 0 18.9677 0.283094 18.9677 0.632258V18.9677H0.632258C0.283094 18.9677 0 19.2508 0 19.6C0 19.9492 0.283094 20.2323 0.632258 20.2323H18.9677V38.5677C18.9677 38.9169 19.2508 39.2 19.6 39.2C19.9492 39.2 20.2323 38.9169 20.2323 38.5677V20.2323H38.5677C38.9169 20.2323 39.2 19.9492 39.2 19.6C39.2 19.2508 38.9169 18.9677 38.5677 18.9677Z" fill="white"/>
</g>
</g>
</g>
<defs>
<clipPath id="clip0_188_60">
<rect width="39.2" height="39.2" fill="white"/>
</clipPath>
</defs>
</svg>
